# Blender 5.0.1
# www.blender.org
o kuehlschrank
v -1.000000 0.000000 1.000000
v -1.000000 4.230472 1.000000
v -1.000000 0.000000 -1.000000
v -1.000000 4.230472 -1.000000
v 1.000000 0.000000 1.000000
v 1.000000 4.230472 1.000000
v 1.000000 0.000000 -1.000000
v 1.000000 4.230472 -1.000000
v -1.000000 2.115236 1.000000
v -1.000000 2.115236 -1.000000
v 1.000000 2.115236 -1.000000
v 1.000000 2.115236 1.000000
v -1.000000 2.159628 1.000000
v -1.000000 2.159628 -1.000000
v 1.000000 2.159628 -1.000000
v 1.000000 2.159628 1.000000
v 0.776053 0.000000 -1.000000
v 0.776053 4.230472 -1.000000
v 0.776053 0.000000 1.000000
v 0.776053 4.230472 1.000000
v 0.776053 2.115236 1.000000
v 0.776053 2.115236 -1.000000
v 0.776053 2.159628 1.000000
v 0.776053 2.159628 -1.000000
v 0.835023 4.230472 -1.000000
v 0.835023 0.000000 1.000000
v 0.835023 2.115236 -1.000000
v 0.835023 2.159628 -1.000000
v 0.835023 0.000000 -1.000000
v 0.835023 4.230472 1.000000
v 0.835023 2.115236 1.000000
v 0.835023 2.159628 1.000000
v 0.835023 4.230472 1.000000
v 0.776053 4.230472 1.000000
v 0.835023 2.115236 1.000000
v 0.776053 2.115236 1.000000
v 0.835023 2.159628 1.000000
v 0.776053 2.159628 1.000000
v 0.776053 0.000000 1.000000
v 0.776053 4.230472 -1.000000
v 0.835023 4.230472 -1.000000
v 0.835023 0.000000 1.000000
v 0.835023 4.207320 0.976848
v 0.776053 4.207320 0.976848
v 0.835023 2.115236 0.967258
v 0.776053 2.115236 0.967258
v 0.835023 2.159628 0.967258
v 0.776053 2.159628 0.967258
v 0.776053 0.000000 0.967258
v 0.776053 4.197730 -1.000000
v 0.835023 4.197730 -1.000000
v 0.835023 0.000000 0.967258
v 0.975963 2.159628 -0.975963
v 0.975963 2.115236 -0.975963
v 0.975963 2.159628 0.975963
v 0.975963 2.115236 0.975963
v 0.835023 2.115236 -0.966007
v 0.835023 2.159628 -0.966007
v 0.835023 2.115236 0.966007
v 0.835023 2.159628 0.966007
vn -1.0000 -0.0000 -0.0000
vn -0.0000 -0.0000 -1.0000
vn 1.0000 -0.0000 -0.0000
vn -0.0000 -0.0000 1.0000
vn -0.0000 -1.0000 -0.0000
vn -0.0000 1.0000 -0.0000
vn -0.0000 1.0000 -0.0049
vn -0.0000 -0.0047 1.0000
vn -0.0705 -0.0000 -0.9975
vn -0.0705 -0.0000 0.9975
vt 0.625000 0.000000
vt 0.562500 0.250000
vt 0.562500 0.000000
vt 0.625000 0.437500
vt 0.562500 0.500000
vt 0.562500 0.437500
vt 0.625000 0.500000
vt 0.562500 0.750000
vt 0.625000 0.875000
vt 0.562500 1.000000
vt 0.562500 0.875000
vt 0.375000 0.500000
vt 0.312500 0.750000
vt 0.312500 0.500000
vt 0.875000 0.500000
vt 0.750000 0.750000
vt 0.750000 0.500000
vt 0.500000 0.875000
vt 0.375000 1.000000
vt 0.375000 0.875000
vt 0.500000 0.500000
vt 0.375000 0.750000
vt 0.500000 0.437500
vt 0.375000 0.437500
vt 0.500000 0.000000
vt 0.375000 0.250000
vt 0.375000 0.000000
vt 0.500000 1.000000
vt 0.500000 0.750000
vt 0.500000 0.250000
vt 0.500000 0.375000
vt 0.687500 0.750000
vt 0.687500 0.500000
vt 0.375000 0.375000
vt 0.250000 0.500000
vt 0.125000 0.750000
vt 0.125000 0.500000
vt 0.562500 0.812500
vt 0.625000 0.812500
vt 0.625000 0.250000
vt 0.562500 0.375000
vt 0.625000 0.750000
vt 0.375000 0.812500
vt 0.500000 0.812500
vt 0.250000 0.750000
vt 0.625000 1.000000
vt 0.875000 0.750000
vt 0.625000 0.375000
s 0
f 2/1/1 14/2/1 13/3/1
f 25/4/2 15/5/2 28/6/2
f 8/7/3 16/8/3 15/5/3
f 20/9/4 13/10/4 23/11/4
f 7/12/5 26/13/5 29/14/5
f 4/15/6 20/16/6 18/17/6
f 21/18/4 1/19/4 19/20/4
f 11/21/3 5/22/3 7/12/3
f 27/23/2 7/12/2 29/24/2
f 9/25/1 3/26/1 1/27/1
f 23/11/4 9/28/4 21/18/4
f 28/6/5 53/5/5 58/6/5
f 11/21/6 56/29/6 12/29/6
f 13/3/1 10/30/1 9/25/1
f 14/2/2 22/31/2 10/30/2
f 30/32/6 41/33/6 33/32/6
f 10/30/2 17/34/2 3/26/2
f 21/18/6 39/20/6 36/18/6
f 20/9/6 38/11/6 34/9/6
f 17/35/5 1/36/5 3/37/5
f 32/38/6 33/39/6 37/38/6
f 4/40/2 24/41/2 14/2/2
f 6/42/4 32/38/4 16/8/4
f 25/33/6 6/42/6 8/7/6
f 12/29/4 26/43/4 5/22/4
f 31/44/6 56/29/6 59/44/6
f 24/41/2 27/23/2 22/31/2
f 22/31/2 29/24/2 17/34/2
f 29/14/5 19/45/5 17/35/5
f 41/33/1 43/32/1 33/32/1
f 36/18/3 48/11/3 38/11/3
f 38/11/3 44/9/3 34/9/3
f 37/38/1 43/39/1 47/38/1
f 18/17/6 34/16/6 40/17/6
f 26/43/6 35/44/6 42/43/6
f 23/11/6 36/18/6 38/11/6
f 31/44/6 37/38/6 35/44/6
f 19/45/6 42/13/6 39/45/6
f 47/38/4 46/18/4 45/44/4
f 45/44/4 49/20/4 52/43/4
f 50/17/7 43/32/7 51/33/7
f 43/39/8 48/11/8 47/38/8
f 39/20/3 46/18/3 36/18/3
f 35/44/1 52/43/1 42/43/1
f 42/13/6 49/45/6 39/45/6
f 40/17/3 44/16/3 50/17/3
f 37/38/1 45/44/1 35/44/1
f 53/5/3 56/29/3 54/21/3
f 58/6/9 54/21/9 57/23/9
f 55/8/10 59/44/10 56/29/10
f 31/44/3 60/38/3 32/38/3
f 32/38/5 55/8/5 16/8/5
f 27/23/6 54/21/6 11/21/6
f 16/8/5 53/5/5 15/5/5
f 28/6/3 57/23/3 27/23/3
f 51/33/2 25/4/2 28/6/2
f 2/1/1 4/40/1 14/2/1
f 25/4/2 8/7/2 15/5/2
f 8/7/3 6/42/3 16/8/3
f 20/9/4 2/46/4 13/10/4
f 7/12/5 5/22/5 26/13/5
f 4/15/6 2/47/6 20/16/6
f 21/18/4 9/28/4 1/19/4
f 11/21/3 12/29/3 5/22/3
f 27/23/2 11/21/2 7/12/2
f 9/25/1 10/30/1 3/26/1
f 23/11/4 13/10/4 9/28/4
f 28/6/5 15/5/5 53/5/5
f 11/21/6 54/21/6 56/29/6
f 13/3/1 14/2/1 10/30/1
f 14/2/2 24/41/2 22/31/2
f 30/32/6 25/33/6 41/33/6
f 10/30/2 22/31/2 17/34/2
f 21/18/6 19/20/6 39/20/6
f 20/9/6 23/11/6 38/11/6
f 17/35/5 19/45/5 1/36/5
f 32/38/6 30/39/6 33/39/6
f 4/40/2 18/48/2 24/41/2
f 6/42/4 30/39/4 32/38/4
f 25/33/6 30/32/6 6/42/6
f 12/29/4 31/44/4 26/43/4
f 31/44/6 12/29/6 56/29/6
f 24/41/2 28/6/2 27/23/2
f 22/31/2 27/23/2 29/24/2
f 29/14/5 26/13/5 19/45/5
f 41/33/1 51/33/1 43/32/1
f 36/18/3 46/18/3 48/11/3
f 38/11/3 48/11/3 44/9/3
f 37/38/1 33/39/1 43/39/1
f 18/17/6 20/16/6 34/16/6
f 26/43/6 31/44/6 35/44/6
f 23/11/6 21/18/6 36/18/6
f 31/44/6 32/38/6 37/38/6
f 19/45/6 26/13/6 42/13/6
f 47/38/4 48/11/4 46/18/4
f 45/44/4 46/18/4 49/20/4
f 50/17/7 44/16/7 43/32/7
f 43/39/8 44/9/8 48/11/8
f 39/20/3 49/20/3 46/18/3
f 35/44/1 45/44/1 52/43/1
f 42/13/6 52/13/6 49/45/6
f 40/17/3 34/16/3 44/16/3
f 37/38/1 47/38/1 45/44/1
f 53/5/3 55/8/3 56/29/3
f 58/6/9 53/5/9 54/21/9
f 55/8/10 60/38/10 59/44/10
f 31/44/3 59/44/3 60/38/3
f 32/38/5 60/38/5 55/8/5
f 27/23/6 57/23/6 54/21/6
f 16/8/5 55/8/5 53/5/5
f 28/6/3 58/6/3 57/23/3
f 24/41/4 18/48/4 50/17/4
f 24/41/2 50/17/2 51/33/2
f 28/6/2 24/41/2 51/33/2
