# Blender 5.0.1
# www.blender.org
o waschbecken
v -1.000000 0.000000 -1.000000
v -0.733671 2.000000 -0.733672
v 1.000000 0.000000 -1.000000
v 0.733672 2.000000 -0.733671
v -1.000000 0.000000 1.000000
v -0.733672 2.000000 0.733671
v 1.000000 0.000000 1.000000
v 0.733671 2.000000 0.733672
v -1.000000 1.699870 -1.000000
v 1.000000 1.699870 -1.000000
v 1.000000 1.699870 1.000000
v -1.000000 1.699870 1.000000
v 1.000000 1.699870 1.000000
v 1.000000 0.000000 1.000000
v -1.000000 0.000000 1.000000
v -1.000000 1.699870 1.000000
v 1.000000 2.000000 1.047000
v -1.000000 2.000000 1.047000
v 1.000000 1.699870 1.047000
v -1.000000 1.699870 1.047000
v -1.000000 2.000000 -1.000000
v 1.000000 2.000000 -1.000000
v 1.000000 2.000000 1.000000
v -1.000000 2.000000 1.000000
v -0.733671 1.652076 -0.733672
v 0.733672 1.652076 -0.733671
v 0.733671 1.652076 0.733672
v -0.733672 1.652076 0.733671
v -0.027247 2.000000 -0.795982
v -0.027247 2.601218 -0.795982
v -0.027247 2.000000 -0.912986
v -0.027247 2.601218 -0.912986
v 0.089756 2.000000 -0.795982
v 0.089756 2.601218 -0.795982
v 0.089756 2.000000 -0.912986
v 0.089756 2.601218 -0.912986
v -0.027247 2.713989 -0.795982
v -0.027247 2.713989 -0.912986
v 0.089756 2.713989 -0.912986
v 0.089756 2.713989 -0.795982
v 0.089756 2.601218 -0.498453
v -0.027247 2.601218 -0.498453
v 0.089756 2.713989 -0.498453
v -0.027247 2.713989 -0.498453
v 0.089756 2.601218 -0.381093
v -0.027247 2.601218 -0.381093
v 0.089756 2.713989 -0.381093
v -0.027247 2.713989 -0.381093
v 0.089756 2.601218 -0.498453
v -0.027247 2.601218 -0.498453
v 0.089756 2.601218 -0.381093
v -0.027247 2.601218 -0.381093
v 0.089756 2.454996 -0.498453
v -0.027247 2.454996 -0.498453
v 0.089756 2.454996 -0.381093
v -0.027247 2.454996 -0.381093
vn -0.0000 -0.0000 -1.0000
vn 1.0000 -0.0000 -0.0000
vn -0.0000 1.0000 -0.0000
vn -1.0000 -0.0000 -0.0000
vn -0.0000 -1.0000 -0.0000
vn -0.0000 -0.0000 1.0000
vt 0.587484 0.000000
vt 0.625000 0.000000
vt 0.625000 0.250000
vt 0.587484 0.250000
vt 0.625000 0.500000
vt 0.587484 0.500000
vt 0.625000 0.750000
vt 0.587484 0.750000
vt 0.625000 1.000000
vt 0.587484 1.000000
vt 0.125000 0.500000
vt 0.375000 0.500000
vt 0.375000 0.750000
vt 0.125000 0.750000
vt 0.841709 0.533291
vt 0.841709 0.716709
vt 0.375000 1.000000
vt 0.375000 0.250000
vt 0.375000 0.000000
vt 0.875000 0.500000
vt 0.875000 0.750000
vt 0.658291 0.533291
vt 0.658291 0.716709
s 0
f 9/1/1 21/2/1 22/3/1 10/4/1
f 10/4/2 22/3/2 23/5/2 11/6/2
f 23/5/3 24/7/3 18/7/3 17/5/3
f 12/8/4 24/7/4 21/9/4 9/10/4
f 3/11/5 7/12/5 5/13/5 1/14/5
f 4/15/6 2/16/6 25/16/6 26/15/6
f 5/13/4 12/8/4 9/10/4 1/17/4
f 7/12/3 11/6/3 13/6/3 14/12/3
f 3/18/2 10/4/2 11/6/2 7/12/2
f 1/19/1 9/1/1 10/4/1 3/18/1
f 14/12/6 13/6/6 16/8/6 15/13/6
f 11/6/3 12/8/3 16/8/3 13/6/3
f 12/8/3 5/13/3 15/13/3 16/8/3
f 5/13/3 7/12/3 14/12/3 15/13/3
f 19/6/6 17/5/6 18/7/6 20/8/6
f 12/8/5 11/6/5 19/6/5 20/8/5
f 24/7/4 12/8/4 20/8/4 18/7/4
f 11/6/2 23/5/2 17/5/2 19/6/2
f 2/16/3 4/15/3 22/20/3 21/21/3
f 4/15/3 8/22/3 23/5/3 22/20/3
f 8/22/3 6/23/3 24/7/3 23/5/3
f 6/23/3 2/16/3 21/21/3 24/7/3
f 27/22/3 26/15/3 25/16/3 28/23/3
f 2/16/2 6/23/2 28/23/2 25/16/2
f 8/22/4 4/15/4 26/15/4 27/22/4
f 6/23/1 8/22/1 27/22/1 28/23/1
f 29/19/4 30/2/4 32/3/4 31/18/4
f 31/18/1 32/3/1 36/5/1 35/12/1
f 35/12/2 36/5/2 34/7/2 33/13/2
f 33/13/6 34/7/6 30/9/6 29/17/6
f 31/11/5 35/12/5 33/13/5 29/14/5
f 34/7/2 36/5/2 39/5/2 40/7/2
f 39/5/3 38/20/3 37/21/3 40/7/3
f 32/3/4 30/2/4 37/2/4 38/3/4
f 34/7/2 40/7/2 43/7/2 41/7/2
f 36/5/1 32/3/1 38/3/1 39/5/1
f 44/2/4 42/2/4 46/2/4 48/2/4
f 40/7/3 37/21/3 44/21/3 43/7/3
f 30/9/5 34/7/5 41/7/5 42/9/5
f 37/2/4 30/2/4 42/2/4 44/2/4
f 46/9/6 45/7/6 47/7/6 48/9/6
f 43/7/3 44/21/3 48/21/3 47/7/3
f 41/7/2 43/7/2 47/7/2 45/7/2
f 46/2/3 42/2/3 50/2/3 52/2/3
f 49/7/2 51/7/2 55/7/2 53/7/2
f 45/7/3 46/9/3 52/9/3 51/7/3
f 41/7/3 45/7/3 51/7/3 49/7/3
f 42/9/3 41/7/3 49/7/3 50/9/3
f 54/9/5 53/7/5 55/7/5 56/9/5
f 51/7/6 52/9/6 56/9/6 55/7/6
f 52/2/4 50/2/4 54/2/4 56/2/4
f 50/9/1 49/7/1 53/7/1 54/9/1
